<?xml version="1.0" encoding="utf-8"?>
<!-- Generator: Adobe Illustrator 22.1.0, SVG Export Plug-In . SVG Version: 6.00 Build 0)  -->
<svg version="1.1" id="Layer_1" xmlns="http://www.w3.org/2000/svg" xmlns:xlink="http://www.w3.org/1999/xlink" x="0px" y="0px"
	 viewBox="0 0 395.3 133.3" style="enable-background:new 0 0 395.3 133.3;" xml:space="preserve">
<g>
	<path d="M145.8,40.9c7.1,1.9,13.5,5.2,19.3,9.9c6.5,5.3,10.9,11.9,13.4,19.8c1.1,3.3,1.3,6.8,1.9,10.2c0.8,4.4,0,8.6-0.4,12.7
		c-0.6,5.7-2.5,11.1-5.3,16.2c-3.5,6.3-8.2,11.4-14.1,15.3c-8,5.2-17,7.3-26.5,7.6c-5.3,0.2-10.5-0.7-15.6-1.9
		c-10.5-2.5-19-8.2-25.7-16.4c-6.3-7.7-9-17-9.3-26.9c-0.2-5.1,0.6-10,1.9-15c3.9-15.1,13.4-25.2,27.9-30.5
		c5.7-2.1,11.7-3.1,18.2-2.7C136.1,38.8,141,39.7,145.8,40.9z M128.7,110.9c0.3,0.7,0.7,1.4,1.2,2c1.4,1.4,3.3,1.5,4.7,0
		c0.8-0.9,1.6-2,2-3.1c1.6-4.3,2.2-8.9,2.4-13.5c0.2-4.8,0.3-9.6,0-14.4c-0.4-6.1-0.8-12.2-2.8-18c-0.6-1.7-1.3-3.3-2.3-4.8
		c-1.3-2-4.1-2-5.3,0c-1,1.7-1.9,3.6-2.3,5.6c-0.8,4.5-1.6,9-1.9,13.6c-0.3,4.2,0,8.5,0,12.7c-0.1,4.2,0.5,8.3,1.3,12.4
		C126.8,105.9,127.7,108.4,128.7,110.9z"/>
	<path d="M360.3,40.9c7.1,1.9,13.5,5.2,19.3,9.9c6.5,5.3,10.9,11.9,13.4,19.8c1.1,3.3,1.3,6.8,1.9,10.2c0.8,4.4,0,8.6-0.4,12.7
		c-0.6,5.7-2.5,11.1-5.3,16.2c-3.5,6.3-8.2,11.4-14.1,15.3c-8,5.2-17,7.3-26.5,7.6c-5.3,0.2-10.5-0.7-15.6-1.9
		c-10.5-2.5-19-8.2-25.7-16.4c-6.3-7.7-9-17-9.3-26.9c-0.2-5.1,0.6-10,1.9-15c3.9-15.1,13.4-25.2,27.9-30.5
		c5.7-2.1,11.7-3.1,18.2-2.7C350.6,38.8,355.5,39.7,360.3,40.9z M343.2,110.9c0.3,0.7,0.7,1.4,1.2,2c1.4,1.4,3.3,1.5,4.7,0
		c0.8-0.9,1.6-2,2-3.1c1.6-4.3,2.2-8.9,2.4-13.5c0.2-4.8,0.3-9.6,0-14.4c-0.4-6.1-0.8-12.2-2.8-18c-0.6-1.7-1.3-3.3-2.3-4.8
		c-1.3-2-4.1-2-5.3,0c-1,1.7-1.9,3.6-2.3,5.6c-0.8,4.5-1.6,9-1.9,13.6c-0.3,4.2,0,8.5,0,12.7c-0.1,4.2,0.5,8.3,1.3,12.4
		C341.3,105.9,342.2,108.4,343.2,110.9z"/>
	<path d="M50,60.4c0,1.1,0,1.9,0,2.6c0,10.8,0,21.6,0,32.3c0,2.8,0.5,5.4,2.1,7.7c0.4,0.6,1,1.2,1.6,1.6c2.5,1.5,7.7,0.9,9.9-0.9
		c1.5-1.2,2.9-2.5,4.4-3.7c0.5-0.4,1.1-0.8,1.7-1.1c3.5-1.9,6.5-0.3,7,3.6c0.6,5.7-0.9,11-4.3,15.6c-5.1,7-12.3,11-20.6,13.2
		c-3.8,1-7.7,1.6-11.7,1.3c-6-0.5-11.9-1.5-17.3-4.6c-5.8-3.4-9.4-8.3-10.9-14.7c-0.8-3.7-1.3-7.5-1.3-11.3
		c-0.2-11.9-0.2-23.8,0-35.7c0.1-4.2-1.9-6.5-4.9-8.5c-0.4-0.2-0.8-0.4-1.2-0.7C0.7,54.8-0.8,51.2,0.4,47c0.6-2.1,4.4-4.8,7.1-5
		c1.5-0.1,3-0.1,4.4,0c1.6,0.1,2.9-0.4,4-1.5c1.8-1.9,3.6-3.8,5.2-5.8c3.2-4.1,6.1-8.4,9.4-12.4c1.9-2.3,4.2-4.3,7.4-5.1
		c3.2-0.9,6-0.3,8.7,1.3c1.7,1,2.4,2.8,2.9,4.5c0.5,1.7,0.6,3.5,0.7,5.3c0.1,4.4,0,8.8,0,13.5c0.8,0.1,1.5,0.3,2.3,0.3
		c5.8,0,11.6,0,17.4,0c1.2,0,2.5,0.2,3.6,0.7c3.2,1.3,4.7,4.6,3.9,8c-0.9,4-3.5,6.4-7.2,7.7c-3.5,1.2-7.1,1.8-10.8,2
		C56.2,60.5,53.4,60.4,50,60.4z"/>
	<path d="M294,118.7c-0.6-1.1-1.3-2.1-2.2-3c-3.2-3.3-4.6-7.1-4.6-11.9c0.2-31,0.1-62,0.1-93c0-1,0.1-2.1,0-3.1
		c-0.7-5.1-3.7-7.4-8.5-7.1c-3.1,0.2-6.2,1.1-9.1,2.2c-7.9,2.9-15.6,6.1-23.4,9.3c-1.3,0.5-2.4,1.6-3.6,2.5
		c-3.1,2.4-3.3,7.8-0.2,10.4c1.2,1,2.3,2.2,3.5,3.3c1.7,1.5,2.4,3.5,2.4,5.7c0,2.7,0,5.4,0,8.1c-3.6-1-7-2.4-10.5-2.8
		c-4.8-0.6-9.7-0.4-14.5,0.6c-8.1,1.8-15.1,5.9-20.7,12c-3.7,4.1-6.6,8.7-8.7,14c-3.9,9.9-5.2,20.1-3.7,30.7
		c1,6.9,3.1,13.3,6.5,19.3c3.3,5.7,7.7,10.3,13.7,13.3c6,2.9,12.2,4,18.9,2.8c5.2-0.9,9.9-2.7,14.1-5.8c2.7-2,5.3-4.2,8-6.3
		c0.2,0.3,0.3,0.7,0.6,1c3.4,5.8,8.4,8.9,15.2,8.9c2.5,0,5,0,7.5,0c4.1,0,8.2,0.1,12.3,0C293.9,129.8,296.2,122.7,294,118.7z
		 M272.3,50.4c-0.5,0.6-1.1,1.1-1.6,1.7c-7.7,8.6-14.3,18-19.7,28.5c-3,5.9-6,12-8.6,18.2c-1.8,4.1-4.5,6.7-8.2,8.4
		c-0.9,0.4-1.8,0.8-2.7,1c-1.7,0.4-2.6-0.1-3.3-1.9c-0.6-1.6-1.1-3.2-1.6-4.7c-2.7-7.9-6.5-15-11.6-21.3c-0.9-1.1-0.8-2.4,0.2-3.2
		c2.5-2.1,5.1-3.7,8.2-4.5c2.2-0.6,4,0.2,5.5,1.9c2.2,2.4,4.1,5,5.6,7.9c0.4,0.8,0.9,1.6,1.4,2.6c1.9-3,3.9-5.9,5.7-8.8
		c5-7.9,10.7-15,17.5-20.9c3.2-2.8,6.5-5.3,10.5-6.5c0.5-0.2,1.1-0.4,1.7-0.4c0.4,0,1.1,0.2,1.3,0.6C272.8,49.3,272.6,50,272.3,50.4
		z"/>
</g>
</svg>
